<svg xmlns="http://www.w3.org/2000/svg" viewBox="0 0 124.28 114.09"><defs><style>.cls-1{fill:#21272f;}.cls-2{fill:#3a4354;}</style></defs><g id="Calque_2" data-name="Calque 2"><g id="Calque_1-2" data-name="Calque 1"><path class="cls-1" d="M49.8,80l3.55-2a27,27,0,0,0-2.2-5.25L47.23,74a22.89,22.89,0,0,0-4.17-5.06L43,68.82l2-3.68a28.51,28.51,0,0,0-4.68-3.23l-2.74,3.23a23.4,23.4,0,0,0-6.3-2l-.33-4.29a27.49,27.49,0,0,0-5.66-.17L24.7,63a23.41,23.41,0,0,0-6.38,1.68l-2.64-3.49a26.25,26.25,0,0,0-4.85,2.92l1.88,4a24.37,24.37,0,0,0-2.4,2.27,23.31,23.31,0,0,0-2,2.58L4.13,71.4a26.6,26.6,0,0,0-2.48,5.09l3.71,2.32a22.92,22.92,0,0,0-1.12,6.5L0,86.25a27.42,27.42,0,0,0,.68,5.63l4.3,0a23.11,23.11,0,0,0,2.56,6.1l-3,3a27.68,27.68,0,0,0,3.64,4.37l3.48-2.3.08.07a23,23,0,0,0,5.4,3.7l-.85,4a26.47,26.47,0,0,0,5.44,1.73l1.64-3.71a23,23,0,0,0,6.68.21l1.41,3.72A27.24,27.24,0,0,0,37,111.28l-.6-3.92a22.73,22.73,0,0,0,5.73-3.47l3.17,2.35a25.76,25.76,0,0,0,2-2A27,27,0,0,0,49.16,102l-2.61-2.94a22.91,22.91,0,0,0,2.94-6l4,.26a27,27,0,0,0,1-5.62l-3.84-1.08A23.23,23.23,0,0,0,49.8,80Zm-23,18.3A12.64,12.64,0,1,1,39.89,86.08,12.64,12.64,0,0,1,26.83,98.27Z"/><path class="cls-1" d="M39.07,47.24a13.57,13.57,0,0,1,6-25.78,40.59,40.59,0,0,1,8.36-9.55,23.9,23.9,0,0,0-3-.86l-.13-4.62A28.85,28.85,0,0,0,44.23,6l-.82,4.59A24.75,24.75,0,0,0,36.48,12L33.82,8.14A28.56,28.56,0,0,0,28.47,11l1.8,4.37a25.79,25.79,0,0,0-5,5l-4.36-1.84A28.87,28.87,0,0,0,18,23.88l3.86,2.69a25.1,25.1,0,0,0-1.53,6.92l-4.6.8a29.45,29.45,0,0,0,.44,6.07l4.62.17a24.59,24.59,0,0,0,2.44,6.69l-3.35,3.07a28.59,28.59,0,0,0,3.67,4.88l3.87-2.28.08.08a24.67,24.67,0,0,0,5.61,4.24L32,61.48a28.54,28.54,0,0,0,5.74,2.13l1.95-3.9a24,24,0,0,0,3,.48A40.25,40.25,0,0,1,39.07,47.24Z"/><path class="cls-1" d="M118.35,71.54,123,69a35.45,35.45,0,0,0-2.79-6.91l-5.14,1.51a29.6,29.6,0,0,0-2.4-3.45,37.63,37.63,0,0,1-9,11.17,16.51,16.51,0,1,1-31.31,8.06,37.36,37.36,0,0,1-13.18-5.36,30.26,30.26,0,0,0-.4,3.79L53.21,79a35.77,35.77,0,0,0,.8,7.37h5.61a29.77,29.77,0,0,0,3.27,8L59,98.28A36.31,36.31,0,0,0,63.63,104l4.59-3,.1.09a30.4,30.4,0,0,0,7,4.92l-1.16,5.22a35.74,35.74,0,0,0,7.07,2.34l2.19-4.82a30.43,30.43,0,0,0,8.73.36l1.78,4.89a35,35,0,0,0,7.24-1.84l-.74-5.12a30,30,0,0,0,7.55-4.45l4.1,3.12a34.79,34.79,0,0,0,2.7-2.6c.86-.92,1.66-1.88,2.41-2.85l-3.38-3.89a29.84,29.84,0,0,0,3.94-7.83l5.16.4a36.11,36.11,0,0,0,1.37-7.34l-5-1.47A30.34,30.34,0,0,0,118.35,71.54Z"/><path class="cls-2" d="M85.72,0V33.5h33.5A33.5,33.5,0,0,0,85.72,0ZM78.85,6.87a33.5,33.5,0,1,0,33.49,33.5H78.85Z"/></g></g></svg>